<svg xmlns="http://www.w3.org/2000/svg" viewBox="0 0 64 64">
  <defs>
    <linearGradient id="g" x1="8" y1="56" x2="56" y2="8" gradientUnits="userSpaceOnUse">
      <stop stop-color="#184FEE"/>
      <stop offset="1" stop-color="#1CB8F5"/>
    </linearGradient>
    <mask id="body">
      <path d="M21 10c-7 0-12 6-12 13v18c0 8 8 13 15 10l32-12c11-4 11-10 0-14L24 11c-1-1-2-1-3-1z" fill="#fff"/>
      <circle cx="9" cy="42" r="9.3" fill="#000"/>
    </mask>
  </defs>
  <rect width="64" height="64" fill="url(#g)" mask="url(#body)"/>
  <path d="M32.3 15.2c1.1 11 3.8 14.3 14.3 16.8-10.5 2.5-13.2 5.8-14.3 16.8C31.2 37.8 28.5 34.5 18 32c10.5-2.5 13.2-5.8 14.3-16.8z" fill="#fff"/>
</svg>
